<svg xmlns="http://www.w3.org/2000/svg" xmlns:xlink="http://www.w3.org/1999/xlink" version="1.0" x="0" y="0" width="2400" height="1599.2140174578246" viewBox="87.31369750976563 69.90287750244141 165.37260498046874 110.19424499511719" preserveAspectRatio="xMidYMid meet" color-interpolation-filters="sRGB"><g><defs><linearGradient id="92" x1="0%" y1="0%" x2="100%" y2="0%"><stop offset="0%" stop-color="#fa71cd"></stop> <stop offset="100%" stop-color="#9b59b6"></stop></linearGradient><linearGradient id="93" x1="0%" y1="0%" x2="100%" y2="0%"><stop offset="0%" stop-color="#f9d423"></stop> <stop offset="100%" stop-color="#f83600"></stop></linearGradient><linearGradient id="94" x1="0%" y1="0%" x2="100%" y2="0%"><stop offset="0%" stop-color="#0064d2"></stop> <stop offset="100%" stop-color="#1cb0f6"></stop></linearGradient><linearGradient id="95" x1="0%" y1="0%" x2="100%" y2="0%"><stop offset="0%" stop-color="#f00978"></stop> <stop offset="100%" stop-color="#3f51b1"></stop></linearGradient><linearGradient id="96" x1="0%" y1="0%" x2="100%" y2="0%"><stop offset="0%" stop-color="#7873f5"></stop> <stop offset="100%" stop-color="#ec77ab"></stop></linearGradient><linearGradient id="97" x1="0%" y1="0%" x2="100%" y2="0%"><stop offset="0%" stop-color="#f9d423"></stop> <stop offset="100%" stop-color="#e14fad"></stop></linearGradient><linearGradient id="98" x1="0%" y1="0%" x2="100%" y2="0%"><stop offset="0%" stop-color="#009efd"></stop> <stop offset="100%" stop-color="#2af598"></stop></linearGradient><linearGradient id="99" x1="0%" y1="0%" x2="100%" y2="0%"><stop offset="0%" stop-color="#ffcc00"></stop> <stop offset="100%" stop-color="#00b140"></stop></linearGradient><linearGradient id="100" x1="0%" y1="0%" x2="100%" y2="0%"><stop offset="0%" stop-color="#d51007"></stop> <stop offset="100%" stop-color="#ff8177"></stop></linearGradient><linearGradient id="102" x1="0%" y1="0%" x2="100%" y2="0%"><stop offset="0%" stop-color="#a2b6df"></stop> <stop offset="100%" stop-color="#0c3483"></stop></linearGradient><linearGradient id="103" x1="0%" y1="0%" x2="100%" y2="0%"><stop offset="0%" stop-color="#7ac5d8"></stop> <stop offset="100%" stop-color="#eea2a2"></stop></linearGradient><linearGradient id="104" x1="0%" y1="0%" x2="100%" y2="0%"><stop offset="0%" stop-color="#00ecbc"></stop> <stop offset="100%" stop-color="#007adf"></stop></linearGradient><linearGradient id="105" x1="0%" y1="0%" x2="100%" y2="0%"><stop offset="0%" stop-color="#b88746"></stop> <stop offset="100%" stop-color="#fdf5a6"></stop></linearGradient></defs><g fill="#ffffff" class="icon-text-wrapper icon-svg-group iconsvg" transform="translate(88.93499767780304,71.52417755438019)"><g class="iconsvg-imagesvg" transform="translate(51.06500244140625,0)"><g><rect fill="#ffffff" fill-opacity="0" stroke-width="2" x="0" y="0" width="60" height="60.04563468235859" class="image-rect"></rect> <svg x="0" y="0" width="60" height="60.04563468235859" filtersec="colorsb550905584" class="image-svg-svg primary" style="overflow: visible;"><svg xmlns="http://www.w3.org/2000/svg" viewBox="0.0186874121427536 0.03168483451008797 71.8552474975586 71.91011047363281"><path d="M71.85 12.61c0 2.6.05 5.21 0 7.81-.09 3.42-2.1 4.7-5.32 4.78-5.32.13-7.43-.78-7.59-4.23-.26-5.67-.21-11.36 0-17 .1-2.56 1.76-4 4.53-3.93h3.55c3.35-.15 4.72 1.74 4.82 4.79.07 2.57.01 5.17.01 7.78zM71.86 41.53v4.27c0 5.63-1.08 6.68-6.6 6.67-5.29 0-6.45-1.15-6.47-6.47 0-3.43-.07-6.87 0-10.31.11-3.79 1.49-5.11 5.18-5.19 7.16-.16 7.86.53 7.87 7.83z" fill="#4c88ef"></path><path d="M13 60.69c0 1.18-.07 2.37 0 3.55.63 8.1-2.69 7.89-9.93 7.18-2.2-.21-3-2.2-3-4.24C0 62.93 0 58.67.08 54.43c.09-3.1 1.76-4.77 5-4.63h2.84c3.73.09 5 1.36 5.06 5.21.02 1.9.02 3.79.02 5.68z" fill="#e54c41"></path><path d="M19.6 44v-2.48c0-5.88 1-6.86 6.81-6.82 5.08 0 6.2 1.15 6.25 6.34v7.82c-.05 3.15-1.55 4.87-4.83 4.79h-3.2c-3.61-.14-4.85-1.37-5-5-.08-1.65-.03-3.15-.03-4.65z" fill="#f9be15"></path><path d="M52.14 62.47v2.84c0 5.46-.93 6.36-6.42 6.36s-6.35-.89-6.37-6.42c0-2.6-.05-5.21 0-7.81.08-2.83 1.5-4.4 4.44-4.37h3.2c3.88.08 5 1.2 5.11 5.13.07 1.42.04 2.8.04 4.27z" fill="#3fa95b"></path><path d="M71.85 64.66c0 6.14-.82 7-6.52 7s-6.55-1-6.54-7c0-5.86 1.05-6.93 6.73-6.92 5.33 0 6.33 1.09 6.33 6.92z" fill="#4c88ef"></path><path d="M26.23 58.71c5.35 0 6.42 1.08 6.42 6.47S31.34 72 26 71.94s-6.43-1.27-6.43-6.56c.02-5.52 1.18-6.68 6.66-6.67z" fill="#f8be18"></path><path d="M52.15 40.81c0 6.16-5.37 9.21-10.68 6.32a4 4 0 0 1-2-3.14c-.13-.93 0-1.89-.1-2.83-.56-8.43 2.93-8 9.85-7.16 3.67.47 2.78 4.29 2.93 6.81zM45.91 15.56c5.37 0 6.27.94 6.25 6.52 0 5.21-1 6.24-6.22 6.24-5.7 0-6.61-.9-6.59-6.56.01-5.34.93-6.2 6.56-6.2z" fill="#3fa95b"></path></svg></svg> </g></g> <g transform="translate(0,67.04563522338867)"><g fill-rule="" class="tp-name iconsvg-namesvg" transform="translate(0,0)"><g transform="scale(1)"><g><path d="M8.18 0.33C16.27 0.33 18.68-3.04 18.68-7.06 18.68-9.57 17.72-11.48 15.18-12.28 17.89-12.97 18.68-15.61 18.68-17.69 18.68-21.48 16-23.69 9.27-23.69 7.92-23.69 6.14-23.6 3.56-23.43 2.97-23.4 2.97-23.13 2.97-21.71 2.97-21.02 2.9-20.26 2.31-12.44 1.82-6.11 1.68-4.39 1.68-3.56 1.68-0.96 3 0.33 8.18 0.33ZM10.07-9.9C12.28-9.9 13.07-8.65 13.07-7 13.07-5.74 12.61-3.96 9.87-3.96 9.24-3.96 8.48-4.09 7.72-4.32L8.09-9.7C8.84-9.83 9.57-9.9 10.07-9.9ZM8.68-18.98C9.31-19.07 9.93-19.14 10.4-19.14 12.61-19.14 13.4-17.98 13.4-16.63 13.4-15.58 12.9-14.19 10.3-14.19 9.7-14.19 9.08-14.29 8.42-14.45 8.55-16.24 8.61-17.82 8.68-18.98ZM25.15 0.3C28.21 0.3 28.97-1.75 28.97-3.7 28.97-4.16 26.99-3.6 26.99-5.84 26.99-8.35 28.12-18.98 28.12-21.58 28.12-23.07 27.32-24.42 24.68-24.42L23.4-24.42C23.1-24.42 22.97-24.42 22.87-24.32 22.77-24.22 22.74-23.99 22.7-23.46 21.91-9.37 21.32-6.01 21.32-4.39 21.32-1.06 22.44 0.3 25.15 0.3ZM30.29-4.06C30.29-0.86 32.44 0.33 35.08 0.33 37.82 0.33 39.4-1.02 40.46-2.54 40.79-0.76 41.78 0.33 43.89 0.33 46.93 0.33 47.85-2.01 47.85-3.96 47.85-4.65 45.9-3.93 45.9-6.14 45.9-7.13 46.46-11.68 46.46-12.67 46.46-16.37 44.39-18.48 39.5-18.48 34.45-18.48 31.94-16.24 31.94-13.46 31.94-11.71 33.07-10.92 35.31-10.92 35.97-10.92 36.23-10.99 36.33-11.38 36.73-12.97 37.03-14.06 38.87-14.06 40.52-14.06 40.92-13.17 40.92-11.75 40.92-11.29 40.89-10.99 40.85-10.53 33.96-10.36 30.29-7.99 30.29-4.06ZM40.56-7.82C40.36-5.31 38.91-4.06 37.49-4.06 36.76-4.06 35.97-4.39 35.97-5.41 35.97-7.16 38.25-7.82 40.56-7.82ZM58.18-4.06C56.03-4.06 55.08-5.12 55.08-8.25 55.08-10 55.37-14.09 58.11-14.09 59.6-14.09 59.6-12.87 59.63-10.72 59.63-10.33 59.83-10.26 60.49-10.26 63.2-10.26 64.78-11.35 64.78-13.73 64.78-16.37 62.83-18.48 58.54-18.48 50.62-18.48 49.47-11.32 49.47-7.92 49.47-1.49 53.66 0.33 56.99 0.33 60.03 0.33 61.94-1.39 62.34-1.85 62.77-2.34 63.39-4.19 63.39-4.79 63.39-5.41 63.1-5.78 62.63-5.78 61.88-5.78 60.75-4.06 58.18-4.06ZM82.3-2.67C82.3-3.2 79.1-6.14 75.41-10.23 79.5-11.98 81.58-13.37 81.58-14.62 81.58-15.64 80.06-18.45 79.1-18.45 78.94-18.45 78.57-18.35 78.18-17.98L72.9-13.17C73.19-17.26 73.46-20.69 73.46-21.55 73.46-23.07 72.73-24.42 70.03-24.42L68.74-24.42C68.44-24.42 68.31-24.42 68.21-24.32 68.11-24.22 68.08-23.99 68.05-23.46 66.96-5.84 66.59-4.85 66.59-3.23 66.59-1.12 67.22 0 69.96 0L71.15 0C71.71 0 71.84-0.13 71.87-0.66 72.04-2.74 72.24-5.05 72.4-7.36 74.75-3 77.06 0.33 79.4 0.33 81.41 0.33 82.3-2.21 82.3-2.67ZM96.92 0C97.32 0 97.42-0.13 97.45-0.49 97.48-0.89 97.75-4.26 98.01-8.15 98.57-8.02 99.2-7.95 99.96-7.92 100.98-3.63 102.3 0.33 105.07 0.33 107.65 0.33 109.23-1.55 109.23-2.15 109.23-2.54 108.7-3.3 107.68-4.79L104.91-8.75C107.88-10.13 109.2-13 109.2-16.4 109.2-20.86 106.95-23.76 101.28-23.76 99.46-23.76 96.46-23.43 93.69-23.43 93.26-23.43 93.19-23.1 93.06-21.12 92.96-19.54 92.83-16.86 92.5-12.44 92.17-8.22 91.84-4.03 91.84-2.94 91.84-1.02 92.8 0 95.27 0ZM100.62-18.81C102.8-18.81 103.59-17.79 103.59-16 103.59-14.62 103.09-12.21 100.32-12.21 99.73-12.21 99.03-12.31 98.31-12.47 98.47-14.88 98.6-17.09 98.67-18.64 99.4-18.74 100.09-18.81 100.62-18.81ZM119.03 0.33C127.31 0.33 128.9-6.6 128.9-10.76 128.9-15.64 126.69-18.48 121.14-18.48 113.59-18.48 111.24-13.23 111.24-7.92 111.24-3.33 112.99 0.33 119.03 0.33ZM120.58-14.09C122.53-14.09 123.29-12.74 123.29-10.56 123.29-8.51 122.63-4.06 119.53-4.06 117.81-4.06 116.85-5.38 116.85-8.28 116.85-10.16 117.25-14.09 120.58-14.09ZM139.69-4.06C137.54-4.06 136.59-5.12 136.59-8.25 136.59-10 136.88-14.09 139.62-14.09 141.11-14.09 141.11-12.87 141.14-10.72 141.14-10.33 141.34-10.26 142-10.26 144.71-10.26 146.29-11.35 146.29-13.73 146.29-16.37 144.34-18.48 140.05-18.48 132.13-18.48 130.98-11.32 130.98-7.92 130.98-1.49 135.17 0.33 138.5 0.33 141.54 0.33 143.45-1.39 143.85-1.85 144.28-2.34 144.9-4.19 144.9-4.79 144.9-5.41 144.61-5.78 144.14-5.78 143.39-5.78 142.26-4.06 139.69-4.06ZM163.81-2.67C163.81-3.2 160.61-6.14 156.92-10.23 161.01-11.98 163.09-13.37 163.09-14.62 163.09-15.64 161.57-18.45 160.61-18.45 160.45-18.45 160.08-18.35 159.69-17.98L154.41-13.17C154.7-17.26 154.97-20.69 154.97-21.55 154.97-23.07 154.24-24.42 151.54-24.42L150.25-24.42C149.95-24.42 149.82-24.42 149.72-24.32 149.62-24.22 149.59-23.99 149.56-23.46 148.47-5.84 148.1-4.85 148.1-3.23 148.1-1.12 148.73 0 151.47 0L152.66 0C153.22 0 153.35-0.13 153.38-0.66 153.55-2.74 153.75-5.05 153.91-7.36 156.26-3 158.57 0.33 160.91 0.33 162.92 0.33 163.81-2.21 163.81-2.67Z" transform="translate(-1.6800000667572021, 24.420000076293945)"></path></g> </g></g> <g fill-rule="" class="tp-slogan iconsvg-slogansvg" fill="#ffffff" transform="translate(1.5050048828125,31.75)"> <g transform="scale(1, 1)"><g transform="scale(1)"><path d="M1.08 0L1.08-7.87L3.05-7.87Q4.87-7.87 5.82-6.86Q6.77-5.86 6.77-3.97L6.77-3.97Q6.77-3.04 6.53-2.30Q6.29-1.56 5.82-1.05Q5.35-0.54 4.67-0.27Q3.98 0 3.10 0L3.10 0L1.08 0ZM2.08-0.82L2.98-0.82Q4.36-0.82 5.05-1.64Q5.74-2.47 5.74-3.97L5.74-3.97Q5.74-5.47 5.05-6.26Q4.36-7.06 2.98-7.06L2.98-7.06L2.08-7.06L2.08-0.82ZM9.46 0L9.46-7.87L10.46-7.87L10.46 0L9.46 0ZM13.16-3.94L13.16-3.94Q13.16-4.88 13.43-5.64Q13.70-6.40 14.19-6.92Q14.67-7.45 15.33-7.73Q15.99-8.02 16.78-8.02L16.78-8.02Q17.60-8.02 18.15-7.71Q18.69-7.40 19.04-7.04L19.04-7.04L18.48-6.41Q18.18-6.72 17.79-6.93Q17.40-7.14 16.80-7.14L16.80-7.14Q16.20-7.14 15.72-6.92Q15.24-6.70 14.90-6.28Q14.56-5.87 14.38-5.28Q14.19-4.69 14.19-3.96L14.19-3.96Q14.19-3.22 14.37-2.62Q14.54-2.03 14.87-1.61Q15.20-1.19 15.69-0.96Q16.17-0.73 16.81-0.73L16.81-0.73Q17.23-0.73 17.61-0.86Q17.98-0.98 18.22-1.20L18.22-1.20L18.22-3.25L16.56-3.25L16.56-4.08L19.14-4.08L19.14-0.77Q18.75-0.37 18.12-0.11Q17.49 0.14 16.70 0.14L16.70 0.14Q15.92 0.14 15.27-0.13Q14.62-0.41 14.16-0.93Q13.69-1.45 13.42-2.21Q13.16-2.98 13.16-3.94ZM22.02 0L22.02-7.87L23.02-7.87L23.02 0L22.02 0ZM27.81 0L27.81-7.03L25.43-7.03L25.43-7.87L31.19-7.87L31.19-7.03L28.82-7.03L28.82 0L27.81 0ZM34.11-3.20L36.48-3.20L36.10-4.40Q35.89-5.06 35.70-5.72Q35.50-6.37 35.31-7.06L35.31-7.06L35.26-7.06Q35.08-6.37 34.89-5.72Q34.70-5.06 34.48-4.40L34.48-4.40L34.11-3.20ZM37.47 0L36.73-2.40L33.86-2.40L33.10 0L32.08 0L34.75-7.87L35.88-7.87L38.54 0L37.47 0ZM40.66 0L40.66-7.87L41.65-7.87L41.65-0.85L45.10-0.85L45.10 0L40.66 0ZM50.46-3.94L50.46-3.94Q50.46-4.88 50.73-5.64Q51.00-6.40 51.48-6.92Q51.97-7.45 52.63-7.73Q53.29-8.02 54.08-8.02L54.08-8.02Q54.90-8.02 55.44-7.71Q55.99-7.40 56.34-7.04L56.34-7.04L55.77-6.41Q55.47-6.72 55.08-6.93Q54.69-7.14 54.09-7.14L54.09-7.14Q53.49-7.14 53.01-6.92Q52.53-6.70 52.20-6.28Q51.86-5.87 51.67-5.28Q51.49-4.69 51.49-3.96L51.49-3.96Q51.49-3.22 51.66-2.62Q51.84-2.03 52.17-1.61Q52.50-1.19 52.98-0.96Q53.47-0.73 54.10-0.73L54.10-0.73Q54.52-0.73 54.90-0.86Q55.28-0.98 55.52-1.20L55.52-1.20L55.52-3.25L53.85-3.25L53.85-4.08L56.43-4.08L56.43-0.77Q56.05-0.37 55.42-0.11Q54.79 0.14 54.00 0.14L54.00 0.14Q53.22 0.14 52.57-0.13Q51.92-0.41 51.45-0.93Q50.98-1.45 50.72-2.21Q50.46-2.98 50.46-3.94ZM60.31-7.07L60.31-4.14L61.63-4.14Q62.56-4.14 63.05-4.52Q63.54-4.90 63.54-5.66L63.54-5.66Q63.54-6.44 63.05-6.76Q62.56-7.07 61.63-7.07L61.63-7.07L60.31-7.07ZM64.76 0L63.64 0L61.74-3.32L60.31-3.32L60.31 0L59.32 0L59.32-7.87L61.78-7.87Q62.38-7.87 62.89-7.76Q63.40-7.64 63.76-7.38Q64.13-7.12 64.33-6.70Q64.54-6.28 64.54-5.66L64.54-5.66Q64.54-4.74 64.06-4.19Q63.58-3.64 62.77-3.43L62.77-3.43L64.76 0ZM70.19 0.14L70.19 0.14Q69.45 0.14 68.83-0.14Q68.21-0.43 67.77-0.97Q67.32-1.50 67.08-2.26Q66.83-3.02 66.83-3.97L66.83-3.97Q66.83-4.92 67.08-5.67Q67.32-6.42 67.77-6.94Q68.21-7.46 68.83-7.74Q69.45-8.02 70.19-8.02L70.19-8.02Q70.94-8.02 71.55-7.73Q72.17-7.45 72.62-6.93Q73.07-6.41 73.32-5.66Q73.56-4.91 73.56-3.97L73.56-3.97Q73.56-3.02 73.32-2.26Q73.07-1.50 72.62-0.97Q72.17-0.43 71.55-0.14Q70.94 0.14 70.19 0.14ZM70.19-0.73L70.19-0.73Q70.72-0.73 71.15-0.96Q71.57-1.19 71.88-1.61Q72.18-2.04 72.35-2.63Q72.52-3.23 72.52-3.97L72.52-3.97Q72.52-4.70 72.35-5.29Q72.18-5.88 71.88-6.29Q71.57-6.70 71.15-6.92Q70.72-7.14 70.19-7.14L70.19-7.14Q69.66-7.14 69.24-6.92Q68.81-6.70 68.51-6.29Q68.20-5.88 68.03-5.29Q67.86-4.70 67.86-3.97L67.86-3.97Q67.86-3.23 68.03-2.63Q68.20-2.04 68.51-1.61Q68.81-1.19 69.24-0.96Q69.66-0.73 70.19-0.73ZM77.05 0L75.38-7.87L76.41-7.87L77.24-3.59Q77.35-2.94 77.47-2.32Q77.59-1.69 77.70-1.04L77.70-1.04L77.74-1.04Q77.88-1.69 78.02-2.32Q78.16-2.95 78.30-3.59L78.30-3.59L79.39-7.87L80.30-7.87L81.39-3.59Q81.54-2.96 81.68-2.33Q81.82-1.69 81.97-1.04L81.97-1.04L82.02-1.04Q82.12-1.69 82.23-2.32Q82.34-2.95 82.46-3.59L82.46-3.59L83.29-7.87L84.25-7.87L82.62 0L81.42 0L80.23-4.74Q80.12-5.20 80.03-5.63Q79.94-6.07 79.84-6.53L79.84-6.53L79.80-6.53Q79.70-6.07 79.60-5.63Q79.50-5.20 79.40-4.74L79.40-4.74L78.24 0L77.05 0ZM88.25 0L88.25-7.03L85.87-7.03L85.87-7.87L91.63-7.87L91.63-7.03L89.26-7.03L89.26 0L88.25 0ZM94.05 0L94.05-7.87L95.04-7.87L95.04-4.57L98.70-4.57L98.70-7.87L99.71-7.87L99.71 0L98.70 0L98.70-3.71L95.04-3.71L95.04 0L94.05 0ZM105.72-1.02L106.32-1.72Q106.74-1.27 107.31-1.00Q107.88-0.73 108.49-0.73L108.49-0.73Q109.27-0.73 109.70-1.09Q110.14-1.44 110.14-2.02L110.14-2.02Q110.14-2.32 110.03-2.53Q109.93-2.74 109.76-2.89Q109.58-3.04 109.34-3.16Q109.10-3.28 108.83-3.41L108.83-3.41L107.70-3.90Q107.42-4.02 107.14-4.19Q106.85-4.36 106.62-4.60Q106.39-4.84 106.25-5.17Q106.10-5.50 106.10-5.93L106.10-5.93Q106.10-6.37 106.29-6.76Q106.48-7.14 106.81-7.42Q107.14-7.70 107.59-7.86Q108.04-8.02 108.58-8.02L108.58-8.02Q109.28-8.02 109.88-7.75Q110.48-7.48 110.90-7.04L110.90-7.04L110.36-6.40Q110.00-6.74 109.57-6.94Q109.13-7.14 108.58-7.14L108.58-7.14Q107.92-7.14 107.51-6.83Q107.11-6.53 107.11-5.99L107.11-5.99Q107.11-5.70 107.23-5.50Q107.34-5.30 107.53-5.15Q107.72-5.00 107.95-4.89Q108.18-4.78 108.42-4.68L108.42-4.68L109.54-4.20Q109.87-4.06 110.17-3.87Q110.47-3.68 110.69-3.44Q110.90-3.19 111.03-2.86Q111.16-2.53 111.16-2.10L111.16-2.10Q111.16-1.63 110.97-1.22Q110.78-0.82 110.44-0.51Q110.09-0.20 109.60-0.03Q109.10 0.14 108.48 0.14L108.48 0.14Q107.65 0.14 106.94-0.17Q106.24-0.48 105.72-1.02L105.72-1.02ZM113.70 0L113.70-7.87L118.24-7.87L118.24-7.03L114.70-7.03L114.70-4.56L117.69-4.56L117.69-3.71L114.70-3.71L114.70-0.85L118.36-0.85L118.36 0L113.70 0ZM122.02-7.07L122.02-4.14L123.34-4.14Q124.27-4.14 124.76-4.52Q125.25-4.90 125.25-5.66L125.25-5.66Q125.25-6.44 124.76-6.76Q124.27-7.07 123.34-7.07L123.34-7.07L122.02-7.07ZM126.48 0L125.35 0L123.45-3.32L122.02-3.32L122.02 0L121.03 0L121.03-7.87L123.49-7.87Q124.09-7.87 124.60-7.76Q125.11-7.64 125.47-7.38Q125.84-7.12 126.04-6.70Q126.25-6.28 126.25-5.66L126.25-5.66Q126.25-4.74 125.77-4.19Q125.29-3.64 124.48-3.43L124.48-3.43L126.48 0ZM130.27 0L127.75-7.87L128.82-7.87L130.08-3.62Q130.30-2.92 130.46-2.32Q130.62-1.72 130.85-1.02L130.85-1.02L130.90-1.02Q131.11-1.72 131.28-2.32Q131.45-2.92 131.65-3.62L131.65-3.62L132.91-7.87L133.93-7.87L131.44 0L130.27 0ZM136.01 0L136.01-7.87L137.01-7.87L137.01 0L136.01 0ZM139.71-3.94L139.71-3.94Q139.71-4.88 139.98-5.64Q140.24-6.40 140.71-6.92Q141.18-7.45 141.82-7.73Q142.46-8.02 143.22-8.02L143.22-8.02Q143.94-8.02 144.48-7.72Q145.02-7.43 145.36-7.04L145.36-7.04L144.80-6.41Q144.49-6.74 144.11-6.94Q143.73-7.14 143.23-7.14L143.23-7.14Q142.66-7.14 142.21-6.92Q141.75-6.70 141.43-6.28Q141.10-5.87 140.92-5.28Q140.74-4.69 140.74-3.96L140.74-3.96Q140.74-3.22 140.92-2.62Q141.09-2.03 141.40-1.61Q141.72-1.19 142.17-0.96Q142.62-0.73 143.18-0.73L143.18-0.73Q143.76-0.73 144.18-0.96Q144.61-1.19 144.99-1.61L144.99-1.61L145.56-1.00Q145.09-0.46 144.50-0.16Q143.91 0.14 143.16 0.14L143.16 0.14Q142.41 0.14 141.78-0.13Q141.15-0.41 140.69-0.93Q140.23-1.45 139.97-2.21Q139.71-2.98 139.71-3.94ZM148.02 0L148.02-7.87L152.56-7.87L152.56-7.03L149.02-7.03L149.02-4.56L152.00-4.56L152.00-3.71L149.02-3.71L149.02-0.85L152.68-0.85L152.68 0L148.02 0ZM154.77-1.02L155.37-1.72Q155.79-1.27 156.36-1.00Q156.93-0.73 157.54-0.73L157.54-0.73Q158.32-0.73 158.75-1.09Q159.18-1.44 159.18-2.02L159.18-2.02Q159.18-2.32 159.08-2.53Q158.98-2.74 158.81-2.89Q158.63-3.04 158.39-3.16Q158.15-3.28 157.88-3.41L157.88-3.41L156.75-3.90Q156.47-4.02 156.18-4.19Q155.90-4.36 155.67-4.60Q155.44-4.84 155.30-5.17Q155.15-5.50 155.15-5.93L155.15-5.93Q155.15-6.37 155.34-6.76Q155.52-7.14 155.85-7.42Q156.18-7.70 156.63-7.86Q157.08-8.02 157.62-8.02L157.62-8.02Q158.33-8.02 158.93-7.75Q159.53-7.48 159.95-7.04L159.95-7.04L159.41-6.40Q159.05-6.74 158.61-6.94Q158.18-7.14 157.62-7.14L157.62-7.14Q156.96-7.14 156.56-6.83Q156.16-6.53 156.16-5.99L156.16-5.99Q156.16-5.70 156.27-5.50Q156.39-5.30 156.58-5.15Q156.77-5.00 157-4.89Q157.23-4.78 157.47-4.68L157.47-4.68L158.58-4.20Q158.92-4.06 159.22-3.87Q159.52-3.68 159.74-3.44Q159.95-3.19 160.08-2.86Q160.20-2.53 160.20-2.10L160.20-2.10Q160.20-1.63 160.02-1.22Q159.83-0.82 159.48-0.51Q159.14-0.20 158.64-0.03Q158.15 0.14 157.53 0.14L157.53 0.14Q156.70 0.14 155.99-0.17Q155.28-0.48 154.77-1.02L154.77-1.02Z" transform="translate(-1.08, 8.016)"></path></g></g></g></g></g><defs v-gra="od"></defs></g></svg>